<?xml version="1.0" encoding="UTF-8"?>
<svg xmlns="http://www.w3.org/2000/svg" width="393" height="852" viewBox="0 0 393 852" role="img" aria-label="Simple Notes light mode checklist editor">
  <defs>
    <filter id="shadow" x="-20%" y="-20%" width="140%" height="150%">
      <feDropShadow dx="0" dy="3" stdDeviation="5" flood-color="#000000" flood-opacity="0.12"/>
    </filter>
    <style>
      text { font-family: Inter, Arial, Helvetica, sans-serif; dominant-baseline: text-before-edge; letter-spacing: 0; }
      .text { fill: #202124; }
      .muted { fill: #6C6258; }
    </style>
  </defs>
  <rect width="393" height="852" fill="#F7F5EF"/>
  <text x="24" y="10" font-size="13" font-weight="800" class="text">9:41</text>
  <path d="M286 20c5-5 13-5 18 0M292 20c2-2 5-2 7 0" fill="none" stroke="#202124" stroke-width="1.8" stroke-linecap="round"/>
  <rect x="306" y="12" width="2.5" height="10" rx="1.2" fill="#202124"/>
  <rect x="311" y="9" width="2.5" height="13" rx="1.2" fill="#202124"/>
  <rect x="318" y="13" width="18" height="9" rx="2" fill="none" stroke="#202124" stroke-width="1.5"/>
  <rect x="321" y="15" width="12" height="5" rx="1" fill="#202124"/>
  <rect x="338" y="16" width="2" height="4" rx="1" fill="#202124"/>

  <g fill="#FFFDF7" stroke="#DED8CC">
    <circle cx="38" cy="70" r="22"/>
    <circle cx="193" cy="70" r="22"/>
    <circle cx="245" cy="70" r="22"/>
  </g>
  <g fill="none" stroke="#202124" stroke-width="2" stroke-linecap="round" stroke-linejoin="round">
    <path d="M47 70H31M31 70l7-7M31 70l7 7"/>
    <path d="M188 60h10l-2 8 5 5-4 4-5-5-8 2 8-14Z"/>
    <path d="M237 63h16M240 66h10v15h-10zM242 60h6" stroke="#B3261E"/>
  </g>
  <rect x="275" y="48" width="86" height="44" rx="22" fill="#2E7D68"/>
  <text x="318" y="60" font-size="15" font-weight="800" text-anchor="middle" fill="#FFFFFF">Save</text>

  <g filter="url(#shadow)">
    <rect x="16" y="116" width="361" height="366" rx="12" fill="#FFF0C2" stroke="#E4C469"/>
  </g>
  <text x="32" y="134" font-size="24" font-weight="900" class="text">Grocery run</text>
  <rect x="32" y="186" width="329" height="44" rx="22" fill="rgba(127,127,127,0.18)"/>
  <rect x="197" y="190" width="160" height="36" rx="18" fill="#2E7D68"/>
  <text x="113" y="199" font-size="14" font-weight="800" text-anchor="middle" class="text">Text</text>
  <text x="277" y="199" font-size="14" font-weight="800" text-anchor="middle" fill="#FFFFFF">Checklist</text>

  <g font-size="17" class="text">
    <path d="M39 262l9 9 17-23" fill="none" stroke="#2E7D68" stroke-width="2.3" stroke-linecap="round" stroke-linejoin="round"/>
    <text x="74" y="253">Coffee beans</text>
    <rect x="39" y="306" width="22" height="22" rx="4" fill="none" stroke="#2E7D68" stroke-width="2"/>
    <text x="74" y="303">Oat milk</text>
    <rect x="39" y="354" width="22" height="22" rx="4" fill="none" stroke="#2E7D68" stroke-width="2"/>
    <text x="74" y="351">Fresh berries</text>
  </g>
  <path d="M40 418h18M49 409v18" stroke="#2E7D68" stroke-width="2.5" stroke-linecap="round"/>
  <text x="68" y="407" font-size="15" font-weight="800" fill="#2E7D68">Add item</text>

  <rect x="16" y="498" width="361" height="112" rx="12" fill="#FFFDF7" stroke="#DED8CC"/>
  <text x="32" y="514" font-size="15" font-weight="900" class="text">Color</text>
  <circle cx="53" cy="571" r="21" fill="#FFFDF7" stroke="#DED8CC"/>
  <circle cx="101" cy="571" r="21" fill="#E5F1E3" stroke="#A7C5A4"/>
  <circle cx="149" cy="571" r="21" fill="#E0EEF8" stroke="#A0C3DD"/>
  <circle cx="197" cy="571" r="21" fill="#FFF0C2" stroke="#2E7D68" stroke-width="3"/>
  <circle cx="245" cy="571" r="21" fill="#FFE0D8" stroke="#E3A093"/>
  <circle cx="293" cy="571" r="21" fill="#ECE2F4" stroke="#BCA4D0"/>
  <circle cx="341" cy="571" r="21" fill="#E7E9EA" stroke="#BAC1C4"/>

  <rect x="16" y="626" width="361" height="122" rx="12" fill="#FFFDF7" stroke="#DED8CC"/>
  <text x="32" y="642" font-size="15" font-weight="900" class="text">Labels</text>
  <rect x="32" y="680" width="329" height="48" rx="8" fill="#FFFFFF" stroke="#DED8CC"/>
  <text x="48" y="694" font-size="16" class="text">Home, Errands</text>
  <rect x="139" y="833" width="115" height="4" rx="2" fill="#202124" opacity="0.34"/>
</svg>
